<svg width="254" height="50" viewBox="0 0 254 50" fill="none" xmlns="http://www.w3.org/2000/svg">
<path d="M24.0792 35.8264L15.1094 26.8566L15.7229 26.243L24.6928 35.2129L24.0792 35.8264Z" fill="#9E3FF8"/>
<path d="M29.7007 17.8381L26.9141 15.0515L27.5277 14.4379L30.3143 17.2246L29.7007 17.8381Z" fill="#9E3FF8"/>
<path d="M24.4139 14.8215L15.5824 23.6531L14.9688 23.0395L23.8004 14.208L24.4139 14.8215Z" fill="#9E3FF8"/>
<path d="M31.2121 32.1095L27.4807 35.8408L26.8672 35.2273L30.5985 31.4959L31.2121 32.1095Z" fill="#9E3FF8"/>
<path d="M26.012 45.3887H25.5781V15.6731H26.012V45.3887Z" fill="black"/>
<path d="M14.6037 14.034L24.2286 23.659L23.9219 23.9658L14.2969 14.3409L14.6037 14.034Z" fill="black"/>
<path d="M21.3498 8.21812L25.1688 12.0372L24.862 12.344L21.043 8.52493L21.3498 8.21812Z" fill="black"/>
<path d="M35.8446 15.0015L27.2052 23.6409L26.8984 23.3341L35.5378 14.6947L35.8446 15.0015Z" fill="black"/>
<path d="M31.0573 8.30219L27.1153 12.2441L26.8086 11.9373L30.7505 7.99538L31.0573 8.30219Z" fill="black"/>
<path d="M27.2948 1.97033C27.2948 2.80033 26.6219 3.47314 25.7919 3.47314C24.9619 3.47314 24.2891 2.80033 24.2891 1.97033C24.2891 1.14033 24.9619 0.467515 25.7919 0.467515C26.6219 0.467515 27.2948 1.14033 27.2948 1.97033Z" fill="#308182"/>
<path d="M20.6971 42.5511C20.6971 43.3811 20.0243 44.054 19.1943 44.054C18.3643 44.054 17.6914 43.3811 17.6914 42.5511C17.6914 41.7211 18.3643 41.0483 19.1943 41.0483C20.0243 41.0483 20.6971 41.7211 20.6971 42.5511Z" fill="#308182"/>
<path d="M32.6815 42.5511C32.6815 43.3811 32.0086 44.054 31.1787 44.054C30.3487 44.054 29.6758 43.3811 29.6758 42.5511C29.6758 41.7211 30.3487 41.0483 31.1787 41.0483C32.0086 41.0483 32.6815 41.7211 32.6815 42.5511Z" fill="#308182"/>
<path d="M38.6268 37.109C38.6268 37.939 37.954 38.6118 37.124 38.6118C36.294 38.6118 35.6211 37.939 35.6211 37.109C35.6211 36.279 36.294 35.6062 37.124 35.6062C37.954 35.6062 38.6268 36.279 38.6268 37.109Z" fill="#308182"/>
<path d="M50.076 25.0384C50.076 25.8684 49.4032 26.5413 48.5732 26.5413C47.7432 26.5413 47.0703 25.8684 47.0703 25.0384C47.0703 24.2084 47.7432 23.5356 48.5732 23.5356C49.4032 23.5356 50.076 24.2084 50.076 25.0384Z" fill="#308182"/>
<path d="M3.97444 25.0384C3.97444 25.8684 3.30163 26.5413 2.47163 26.5413C1.64162 26.5413 0.96875 25.8684 0.96875 25.0384C0.96875 24.2084 1.64162 23.5356 2.47163 23.5356C3.30163 23.5356 3.97444 24.2084 3.97444 25.0384Z" fill="#308182"/>
<path d="M9.55257 19.2301C9.55257 20.0601 8.87976 20.7329 8.04975 20.7329C7.21975 20.7329 6.54688 20.0601 6.54688 19.2301C6.54688 18.4001 7.21975 17.7273 8.04975 17.7273C8.87976 17.7273 9.55257 18.4001 9.55257 19.2301Z" fill="#308182"/>
<path d="M9.55257 30.8788C9.55257 31.7088 8.87976 32.3816 8.04975 32.3816C7.21975 32.3816 6.54688 31.7088 6.54688 30.8788C6.54688 30.0488 7.21975 29.376 8.04975 29.376C8.87976 29.376 9.55257 30.0488 9.55257 30.8788Z" fill="#308182"/>
<path d="M44.658 30.8788C44.658 31.7088 43.9852 32.3816 43.1552 32.3816C42.3252 32.3816 41.6523 31.7088 41.6523 30.8788C41.6523 30.0488 42.3252 29.376 43.1552 29.376C43.9852 29.376 44.658 30.0488 44.658 30.8788Z" fill="#308182"/>
<path d="M44.658 19.2301C44.658 20.0601 43.9852 20.7329 43.1552 20.7329C42.3252 20.7329 41.6523 20.0601 41.6523 19.2301C41.6523 18.4001 42.3252 17.7273 43.1552 17.7273C43.9852 17.7273 44.658 18.4001 44.658 19.2301Z" fill="#308182"/>
<path d="M14.9705 37.109C14.9705 37.939 14.2977 38.6118 13.4677 38.6118C12.6377 38.6118 11.9648 37.939 11.9648 37.109C11.9648 36.279 12.6377 35.6062 13.4677 35.6062C14.2977 35.6062 14.9705 36.279 14.9705 37.109Z" fill="#308182"/>
<path d="M28.001 47.5017C28.001 48.7209 27.0126 49.7092 25.7935 49.7092C24.5742 49.7092 23.5859 48.7209 23.5859 47.5017C23.5859 46.2825 24.5742 45.2942 25.7935 45.2942C27.0126 45.2942 28.001 46.2825 28.001 47.5017Z" fill="#308182"/>
<path d="M28.001 24.9556C28.001 26.1747 27.0126 27.1631 25.7935 27.1631C24.5742 27.1631 23.5859 26.1747 23.5859 24.9556C23.5859 23.7364 24.5742 22.748 25.7935 22.748C27.0126 22.748 28.001 23.7364 28.001 24.9556Z" fill="#308182"/>
<path d="M39.3291 24.9556C39.3291 26.1747 38.3408 27.1631 37.1216 27.1631C35.9024 27.1631 34.9141 26.1747 34.9141 24.9556C34.9141 23.7364 35.9024 22.748 37.1216 22.748C38.3408 22.748 39.3291 23.7364 39.3291 24.9556Z" fill="#308182"/>
<path d="M39.3291 13.5666C39.3291 14.7858 38.3408 15.7742 37.1216 15.7742C35.9024 15.7742 34.9141 14.7858 34.9141 13.5666C34.9141 12.3475 35.9024 11.3591 37.1216 11.3591C38.3408 11.3591 39.3291 12.3475 39.3291 13.5666Z" fill="#308182"/>
<path d="M16.1104 13.5666C16.1104 14.7858 15.122 15.7742 13.9028 15.7742C12.6836 15.7742 11.6953 14.7858 11.6953 13.5666C11.6953 12.3475 12.6836 11.3591 13.9028 11.3591C15.122 11.3591 16.1104 12.3475 16.1104 13.5666Z" fill="#308182"/>
<path d="M22.4424 6.84203C22.4424 8.06119 21.454 9.04956 20.2349 9.04956C19.0156 9.04956 18.0273 8.06119 18.0273 6.84203C18.0273 5.62286 19.0156 4.6345 20.2349 4.6345C21.454 4.6345 22.4424 5.62286 22.4424 6.84203Z" fill="#308182"/>
<path d="M34.0908 6.84203C34.0908 8.06119 33.1025 9.04956 31.8833 9.04956C30.6641 9.04956 29.6758 8.06119 29.6758 6.84203C29.6758 5.62286 30.6641 4.6345 31.8833 4.6345C33.1025 4.6345 34.0908 5.62286 34.0908 6.84203Z" fill="#308182"/>
<path d="M28.001 36.8586C28.001 38.0778 27.0126 39.0662 25.7935 39.0662C24.5742 39.0662 23.5859 38.0778 23.5859 36.8586C23.5859 35.6395 24.5742 34.6511 25.7935 34.6511C27.0126 34.6511 28.001 35.6395 28.001 36.8586Z" fill="#A03FF7"/>
<path d="M34.4737 30.8784C34.4737 32.0976 33.4853 33.0859 32.2661 33.0859C31.0469 33.0859 30.0586 32.0976 30.0586 30.8784C30.0586 29.6592 31.0469 28.6709 32.2661 28.6709C33.4853 28.6709 34.4737 29.6592 34.4737 30.8784Z" fill="#9E3FF8"/>
<path d="M22.1065 30.8784C22.1065 32.0976 21.1181 33.0859 19.8989 33.0859C18.6797 33.0859 17.6914 32.0976 17.6914 30.8784C17.6914 29.6592 18.6797 28.6709 19.8989 28.6709C21.1181 28.6709 22.1065 29.6592 22.1065 30.8784Z" fill="#9E3FF8"/>
<path d="M16.251 25.0381C16.251 26.2572 15.2626 27.2456 14.0435 27.2456C12.8242 27.2456 11.8359 26.2572 11.8359 25.0381C11.8359 23.8189 12.8242 22.8305 14.0435 22.8305C15.2626 22.8305 16.251 23.8189 16.251 25.0381Z" fill="#9E3FF8"/>
<path d="M21.5362 18.8623C21.5362 20.0815 20.5478 21.0698 19.3286 21.0698C18.1094 21.0698 17.1211 20.0815 17.1211 18.8623C17.1211 17.6431 18.1094 16.6548 19.3286 16.6548C20.5478 16.6548 21.5362 17.6431 21.5362 18.8623Z" fill="#9E3FF8"/>
<path d="M33.5205 18.8852C33.5205 20.1044 32.5322 21.0928 31.313 21.0928C30.0938 21.0928 29.1055 20.1044 29.1055 18.8852C29.1055 17.6661 30.0938 16.6777 31.313 16.6777C32.5322 16.6777 33.5205 17.6661 33.5205 18.8852Z" fill="#9E3FF8"/>
<path d="M28.001 13.5666C28.001 14.7858 27.0126 15.7742 25.7935 15.7742C24.5742 15.7742 23.5859 14.7858 23.5859 13.5666C23.5859 12.3475 24.5742 11.3591 25.7935 11.3591C27.0126 11.3591 28.001 12.3475 28.001 13.5666Z" fill="#A03FF7"/>
<path d="M85.375 26.9917C84.9645 24.941 84.0032 23.2807 82.4907 22.0117C80.9777 20.7426 79.1702 20.0955 77.0683 20.0697C74.9659 20.0443 73.1266 20.6723 71.55 21.954C69.9732 23.2362 68.9794 24.9152 68.5696 26.9917H85.375ZM88.2591 29.6837H68.5696C68.8004 31.889 69.7359 33.709 71.3769 35.1445C73.0173 36.5806 74.9534 37.2855 77.1839 37.2596C80.6448 37.2085 83.1187 35.606 84.6058 32.4525H87.7208C86.9 34.8116 85.5155 36.6827 83.5675 38.0671C81.6188 39.4516 79.4527 40.1569 77.0683 40.1823C74.0689 40.2339 71.4154 39.1379 69.108 36.8942C66.8006 34.6511 65.6211 31.9784 65.57 28.8762C65.4931 25.5948 66.6528 22.7682 69.0504 20.3966C71.4472 18.0255 74.2737 16.9295 77.5298 17.1085C80.4526 17.2882 82.9906 18.493 85.1442 20.7235C87.2208 22.9287 88.2591 25.3898 88.2591 28.1071V29.6837Z" fill="black"/>
<path d="M68.8898 26.7297H85.0464C84.6162 24.8895 83.6995 23.3709 82.3186 22.2122C80.8605 20.9892 79.0917 20.3564 77.0614 20.3315C75.0265 20.3056 73.2316 20.9212 71.7113 22.1571C70.2701 23.3292 69.3218 24.8662 68.8898 26.7297ZM85.6907 27.2535H68.2472L68.3089 26.9408C68.7287 24.8131 69.7624 23.0669 71.3809 21.7506C72.9988 20.4354 74.9087 19.7773 77.0677 19.8077C79.2221 19.8341 81.102 20.508 82.6552 21.8108C84.2073 23.1132 85.2074 24.8389 85.628 26.9401L85.6907 27.2535ZM76.8576 17.3518C73.9634 17.3518 71.3999 18.4368 69.2308 20.5827C66.8982 22.8901 65.7533 25.6783 65.8281 28.8699C65.8777 31.8876 67.0414 34.5236 69.2867 36.7064C71.5314 38.8891 74.1441 39.9695 77.0601 39.9203C79.3798 39.8956 81.5164 39.2002 83.412 37.8533C85.2093 36.5762 86.5303 34.8486 87.3429 32.7142H84.7668C83.2319 35.8527 80.6816 37.4698 77.1838 37.5213C74.8948 37.5478 72.8831 36.8144 71.2006 35.3414C69.5163 33.8681 68.5421 31.9737 68.3053 29.7108L68.2751 29.4216H87.9935V28.1069C87.9935 25.4714 86.9694 23.0476 84.9497 20.9029C82.8557 18.7339 80.3519 17.5444 77.5101 17.3697C77.2907 17.3578 77.0732 17.3518 76.8576 17.3518ZM76.8639 40.4458C73.8893 40.4458 71.2179 39.3148 68.9216 37.0819C66.5734 34.7991 65.3564 32.0398 65.3044 28.8804C65.2261 25.5407 66.4232 22.623 68.8623 20.2102C71.3027 17.7959 74.2226 16.6641 77.5404 16.8468C80.5188 17.03 83.1387 18.273 85.3288 20.5413C87.4453 22.7888 88.5173 25.3334 88.5173 28.1069V29.9455H68.8611C69.1338 31.9451 70.0359 33.6268 71.5455 34.9472C73.1282 36.3326 75.0204 37.0278 77.177 36.9975C80.5593 36.9475 82.9109 35.4243 84.3651 32.3406L84.436 32.1904H88.0854L87.9644 32.5383C87.1293 34.9383 85.6997 36.8702 83.7154 38.2804C81.7309 39.6904 79.4942 40.4182 77.0673 40.4441C76.9994 40.4451 76.9315 40.4458 76.8639 40.4458Z" fill="black"/>
<path d="M113.1 39.6421H110.177V26.8362C110.177 24.9902 109.5 23.4009 108.147 22.0676C106.793 20.7348 105.214 20.0679 103.409 20.0679C101.578 20.0679 99.9859 20.7348 98.6327 22.0676C97.2788 23.4009 96.6023 24.9902 96.6023 26.8362V39.6421H93.6797V27.1437C93.6797 24.2981 94.6026 21.933 96.4486 20.0486C98.2944 18.1642 100.614 17.2221 103.409 17.2221C106.178 17.2221 108.485 18.1642 110.331 20.0486C112.177 21.933 113.1 24.2981 113.1 27.1437V39.6421Z" fill="black"/>
<path d="M110.436 39.3805H112.834V27.144C112.834 24.3827 111.928 22.0572 110.14 20.2321C108.354 18.4088 106.088 17.4843 103.405 17.4843C100.697 17.4843 98.4181 18.4088 96.632 20.2321C94.8444 22.0572 93.9379 24.3826 93.9379 27.144V39.3805H96.3368V26.8365C96.3368 24.9265 97.0462 23.2592 98.4453 21.8813C99.8432 20.5044 101.512 19.8062 103.405 19.8062C105.273 19.8062 106.929 20.5044 108.327 21.8813C109.726 23.2599 110.436 24.9271 110.436 26.8365V39.3805ZM113.358 39.9043H109.912V26.8365C109.912 25.0725 109.255 23.531 107.959 22.2545C106.662 20.9777 105.13 20.3301 103.405 20.3301C101.655 20.3301 100.109 20.9777 98.8129 22.2545C97.5174 23.5303 96.8606 25.072 96.8606 26.8365V39.9043H93.4141V27.144C93.4141 24.2408 94.3709 21.7918 96.2577 19.8656C98.1461 17.938 100.551 16.9605 103.405 16.9605C106.234 16.9605 108.626 17.938 110.515 19.8656C112.402 21.7918 113.358 24.2408 113.358 27.144V39.9043Z" fill="black"/>
<path d="M141.788 33.1826L141.48 33.8362C139.173 38.0923 135.609 40.1948 130.789 40.1431C127.61 40.1178 124.867 39.0026 122.56 36.7975C120.252 34.5929 119.086 31.9136 119.06 28.76C119.009 25.5815 120.143 22.857 122.464 20.5881C124.784 18.3193 127.559 17.1595 130.789 17.1079C133.097 17.0828 135.25 17.6848 137.25 18.9154C139.147 20.0948 140.505 21.582 141.326 23.3763L141.749 24.3376H138.436C136.791 21.4931 134.274 20.0318 130.884 19.9536C128.623 19.9026 126.593 20.7246 124.796 22.4203C122.92 24.1677 121.983 26.2364 121.983 28.6255C121.983 31.0151 122.856 33.0642 124.603 34.7731C126.349 36.4819 128.418 37.3232 130.807 37.2974C134.223 37.2463 136.778 35.8745 138.474 33.1826H141.788Z" fill="black"/>
<path d="M130.922 17.3691C130.877 17.3691 130.833 17.3693 130.789 17.3699C127.643 17.4202 124.902 18.5661 122.643 20.7755C120.387 22.981 119.269 25.6659 119.318 28.7559C119.343 31.8231 120.493 34.4643 122.737 36.6081C124.984 38.7554 127.692 39.8566 130.788 39.8813C130.843 39.8819 130.899 39.8822 130.954 39.8822C135.562 39.8822 139.022 37.809 141.243 33.718L141.371 33.4446H138.614C136.875 36.1236 134.249 37.5079 130.807 37.5593C128.357 37.5825 126.206 36.7114 124.416 34.9603C122.625 33.2085 121.717 31.0773 121.717 28.6256C121.717 26.1715 122.692 24.0192 124.613 22.2287C126.453 20.4931 128.563 19.6374 130.886 19.6919C134.306 19.7707 136.894 21.2455 138.582 24.0758H141.344L141.083 23.4819C140.289 21.7467 138.951 20.284 137.108 19.1378C135.201 17.9642 133.12 17.3691 130.922 17.3691ZM130.956 40.406C130.899 40.406 130.841 40.4057 130.783 40.4051C127.55 40.3794 124.721 39.2293 122.375 36.9869C120.025 34.7414 118.82 31.9742 118.795 28.7622C118.743 25.5247 119.914 22.7109 122.277 20.4009C124.635 18.0946 127.496 16.8985 130.782 16.846C133.128 16.8212 135.351 17.4416 137.384 18.6923C139.317 19.8944 140.722 21.4334 141.561 23.2674L142.147 24.5996H138.281L138.205 24.4688C136.618 21.722 134.151 20.2911 130.874 20.2155C128.692 20.1662 126.709 20.9722 124.972 22.6109C123.159 24.2995 122.241 26.3226 122.241 28.6256C122.241 30.931 123.096 32.9363 124.782 34.5859C126.469 36.2363 128.493 37.066 130.8 37.0355C134.105 36.9861 136.611 35.6429 138.249 33.0431L138.326 32.9208H142.197L141.707 33.9611C139.388 38.2382 135.772 40.406 130.956 40.406Z" fill="black"/>
<path d="M165.593 30.2212C165.593 33.0669 164.676 35.4386 162.843 37.3355C161.01 39.233 158.696 40.1814 155.902 40.1814C153.107 40.1814 150.793 39.233 148.961 37.3355C147.127 35.4386 146.211 33.0669 146.211 30.2212V17.7228H149.134V30.5926C149.134 32.442 149.81 34.0283 151.164 35.3515C152.517 36.6746 154.097 37.3355 155.902 37.3355C157.707 37.3355 159.286 36.6746 160.64 35.3515C161.993 34.0283 162.67 32.442 162.67 30.5926V17.7228H165.593V30.2212Z" fill="black"/>
<path d="M146.469 17.9851V30.2216C146.469 32.984 147.369 35.3164 149.145 37.1539C150.918 38.9893 153.19 39.9198 155.898 39.9198C158.606 39.9198 160.878 38.9893 162.651 37.1539C164.427 35.3159 165.327 32.9835 165.327 30.2216V17.9851H162.928V30.5928C162.928 32.5066 162.219 34.1707 160.819 35.539C159.422 36.9052 157.766 37.5979 155.898 37.5979C154.03 37.5979 152.374 36.9052 150.977 35.539C149.578 34.1713 148.868 32.5071 148.868 30.5928V17.9851H146.469ZM155.898 40.4436C153.042 40.4436 150.643 39.4593 148.769 37.5178C146.895 35.5795 145.945 33.1246 145.945 30.2216V17.4613H149.392V30.5928C149.392 32.3607 150.048 33.8989 151.343 35.1645C152.639 36.4315 154.172 37.074 155.898 37.074C157.624 37.074 159.157 36.4315 160.453 35.1645C161.748 33.8984 162.405 32.3603 162.405 30.5928V17.4613H165.851V30.2216C165.851 33.124 164.901 35.5789 163.028 37.5178C161.152 39.4593 158.754 40.4436 155.898 40.4436Z" fill="black"/>
<path d="M174.665 39.6423H171.742V9.99263H174.665V39.6423Z" fill="black"/>
<path d="M172.008 39.3805H174.407V10.2546H172.008V39.3805ZM174.931 39.9043H171.484V9.73075H174.931V39.9043Z" fill="black"/>
<path d="M188.858 40.1042C183.525 40.1042 180.859 37.8354 180.859 33.2975V10.0315H183.782V17.6844H188.858V20.4147H183.782V32.7976C183.782 36.0537 185.474 37.6815 188.858 37.6815V40.1042Z" fill="black"/>
<path d="M181.121 10.2935V33.2976C181.121 37.6271 183.567 39.7693 188.597 39.8405V37.9402C185.228 37.856 183.52 36.1269 183.52 32.7977V20.1528H188.597V17.9464H183.52V10.2935H181.121ZM189.12 40.3662H188.858C183.377 40.3662 180.598 37.988 180.598 33.2976V9.76966H184.044V17.4225H189.12V20.6766H184.044V32.7977C184.044 35.9077 185.619 37.4196 188.858 37.4196H189.12V40.3662Z" fill="black"/>
<path d="M213.702 30.2212C213.702 33.0669 212.785 35.4386 210.953 37.3355C209.119 39.233 206.805 40.1814 204.011 40.1814C201.217 40.1814 198.903 39.233 197.07 37.3355C195.237 35.4386 194.32 33.0669 194.32 30.2212V17.7228H197.243V30.5926C197.243 32.442 197.92 34.0283 199.273 35.3515C200.627 36.6746 202.206 37.3355 204.011 37.3355C205.816 37.3355 207.396 36.6746 208.749 35.3515C210.102 34.0283 210.78 32.442 210.78 30.5926V17.7228H213.702V30.2212Z" fill="black"/>
<path d="M194.579 17.9851V30.2216C194.579 32.984 195.479 35.3164 197.255 37.1539C199.027 38.9893 201.299 39.9198 204.008 39.9198C206.715 39.9198 208.987 38.9893 210.761 37.1539C212.536 35.3159 213.437 32.9835 213.437 30.2216V17.9851H211.038V30.5928C211.038 32.5066 210.328 34.1707 208.929 35.539C207.531 36.9052 205.875 37.5979 204.008 37.5979C202.139 37.5979 200.484 36.9052 199.087 35.539C197.687 34.1713 196.977 32.5071 196.977 30.5928V17.9851H194.579ZM204.008 40.4436C201.152 40.4436 198.753 39.4593 196.878 37.5178C195.005 35.5795 194.055 33.1246 194.055 30.2216V17.4613H197.501V30.5928C197.501 32.3607 198.158 33.8989 199.453 35.1645C200.749 36.4315 202.281 37.074 204.008 37.074C205.734 37.074 207.266 36.4315 208.562 35.1645C209.857 33.8984 210.514 32.3603 210.514 30.5928V17.4613H213.96V30.2216C213.96 33.124 213.011 35.5789 211.137 37.5178C209.262 39.4593 206.863 40.4436 204.008 40.4436Z" fill="black"/>
<path d="M228.466 20.2217C227.107 20.2735 226.005 20.6446 225.159 21.337C224.313 22.0291 223.736 22.6318 223.428 23.1444C222.941 23.9904 222.698 25.119 222.698 26.5285V39.6421H219.621V17.722H222.352V20.837C222.967 19.6581 223.877 18.7477 225.082 18.1066C226.184 17.5172 227.312 17.2479 228.466 17.2991V20.2217Z" fill="black"/>
<path d="M219.883 39.3805H222.436V26.5288C222.436 25.0784 222.693 23.896 223.201 23.014C223.531 22.4658 224.116 21.8522 224.993 21.1346C225.827 20.4527 226.906 20.0627 228.204 19.9737V17.5553H228.195C227.182 17.5553 226.178 17.818 225.206 18.3378C224.054 18.9505 223.172 19.8322 222.584 20.9585L222.09 21.9053V17.9842H219.883V39.3805ZM222.96 39.9043H219.359V17.4604H222.614V19.91C223.216 19.0671 224.001 18.3851 224.959 17.8756C226.097 17.2668 227.281 16.9848 228.478 17.0378L228.728 17.0489V20.4743L228.476 20.4838C227.181 20.5329 226.121 20.8884 225.325 21.54C224.506 22.2095 223.944 22.7949 223.653 23.2795C223.194 24.0768 222.96 25.1714 222.96 26.5288V39.9043Z" fill="black"/>
<path d="M250.348 26.9917C249.937 24.941 248.976 23.2807 247.463 22.0117C245.95 20.7426 244.143 20.0955 242.041 20.0697C239.939 20.0443 238.099 20.6723 236.523 21.954C234.946 23.2362 233.952 24.9152 233.542 26.9917H250.348ZM253.232 29.6837H233.542C233.773 31.889 234.709 33.709 236.35 35.1445C237.99 36.5806 239.926 37.2855 242.157 37.2596C245.618 37.2085 248.091 35.606 249.578 32.4525H252.693C251.873 34.8116 250.488 36.6827 248.54 38.0671C246.591 39.4516 244.425 40.1569 242.041 40.1823C239.042 40.2339 236.388 39.1379 234.081 36.8942C231.773 34.6511 230.594 31.9784 230.543 28.8762C230.466 25.5948 231.625 22.7682 234.023 20.3966C236.42 18.0255 239.246 16.9295 242.503 17.1085C245.425 17.2882 247.963 18.493 250.117 20.7235C252.193 22.9287 253.232 25.3898 253.232 28.1071V29.6837Z" fill="black"/>
<path d="M233.866 26.7297H250.023C249.593 24.8895 248.676 23.3709 247.295 22.2122C245.837 20.9892 244.068 20.3564 242.038 20.3315C240.004 20.3056 238.208 20.9212 236.688 22.1571C235.247 23.3292 234.298 24.8662 233.866 26.7297ZM250.667 27.2535H233.224L233.285 26.9408C233.705 24.8131 234.739 23.0669 236.357 21.7506C237.975 20.4354 239.885 19.7773 242.044 19.8077C244.199 19.8341 246.079 20.508 247.632 21.8108C249.184 23.1132 250.184 24.8389 250.605 26.9401L250.667 27.2535ZM241.834 17.3518C238.94 17.3518 236.376 18.4368 234.207 20.5827C231.875 22.8901 230.73 25.6783 230.805 28.8699C230.854 31.8876 232.018 34.5236 234.263 36.7064C236.508 38.8891 239.121 39.9695 242.037 39.9203C244.356 39.8956 246.493 39.2002 248.389 37.8533C250.186 36.5762 251.507 34.8486 252.319 32.7142H249.743C248.208 35.8527 245.658 37.4698 242.16 37.5213C239.871 37.5478 237.86 36.8144 236.177 35.3414C234.493 33.8681 233.519 31.9737 233.282 29.7108L233.252 29.4216H252.97V28.1069C252.97 25.4714 251.946 23.0476 249.926 20.9029C247.832 18.7339 245.328 17.5444 242.487 17.3697C242.267 17.3578 242.05 17.3518 241.834 17.3518ZM241.84 40.4458C238.866 40.4458 236.194 39.3148 233.898 37.0819C231.55 34.7991 230.333 32.0398 230.281 28.8804C230.203 25.5407 231.4 22.623 233.839 20.2102C236.279 17.7959 239.2 16.6641 242.517 16.8468C245.495 17.03 248.115 18.273 250.305 20.5413C252.422 22.7888 253.494 25.3334 253.494 28.1069V29.9455H233.838C234.11 31.9451 235.013 33.6268 236.522 34.9472C238.105 36.3326 239.997 37.0278 242.154 36.9975C245.536 36.9475 247.888 35.4243 249.342 32.3406L249.413 32.1904H253.062L252.941 32.5383C252.106 34.9383 250.676 36.8702 248.692 38.2804C246.707 39.6904 244.471 40.4182 242.044 40.4441C241.976 40.4451 241.908 40.4458 241.84 40.4458Z" fill="black"/>
<path d="M159.968 29.9944C159.968 32.3133 158.088 34.1931 155.769 34.1931C153.45 34.1931 151.57 32.3133 151.57 29.9944C151.57 27.6755 153.45 25.7957 155.769 25.7957C158.088 25.7957 159.968 27.6755 159.968 29.9944Z" fill="#308182"/>
<path d="M107.808 26.9891C107.808 29.308 105.928 31.1877 103.609 31.1877C101.29 31.1877 99.4102 29.308 99.4102 26.9891C99.4102 24.6702 101.29 22.7904 103.609 22.7904C105.928 22.7904 107.808 24.6702 107.808 26.9891Z" fill="#A03FF7"/>
</svg>
